<svg width="135" height="129" viewBox="0 0 135 129" fill="none" xmlns="http://www.w3.org/2000/svg">
<g filter="url(#filter0_d_2096_1368)">
<rect x="0.000488281" width="134.23" height="129" fill="#0052B4"/>
<rect x="0.500488" y="0.5" width="133.23" height="128" stroke="black"/>
</g>
<mask id="path-3-outside-1_2096_1368" maskUnits="userSpaceOnUse" x="9" y="55.6406" width="116" height="18" fill="black">
<rect fill="white" x="9" y="55.6406" width="116" height="18"/>
<path d="M10.6227 71.6406L16.9227 57.6406H19.4827L25.8027 71.6406H23.0827L17.6627 59.0206H18.7027L13.3027 71.6406H10.6227ZM13.5227 68.4006L14.2227 66.3606H21.7827L22.4827 68.4006H13.5227ZM27.3431 71.6406V56.8006H29.8431V71.6406H27.3431ZM33.1244 71.6406V56.8006H35.6244V71.6406H33.1244ZM49.013 71.8406C47.9196 71.8406 46.873 71.6873 45.873 71.3806C44.873 71.0606 44.0796 70.654 43.493 70.1606L44.393 68.1406C44.953 68.5806 45.6463 68.9473 46.473 69.2406C47.2996 69.534 48.1463 69.6806 49.013 69.6806C49.7463 69.6806 50.3396 69.6006 50.793 69.4406C51.2463 69.2806 51.5796 69.0673 51.793 68.8006C52.0063 68.5206 52.113 68.2073 52.113 67.8606C52.113 67.434 51.9596 67.094 51.653 66.8406C51.3463 66.574 50.9463 66.3673 50.453 66.2206C49.973 66.0606 49.433 65.914 48.833 65.7806C48.2463 65.6473 47.653 65.494 47.053 65.3206C46.4663 65.134 45.9263 64.9006 45.433 64.6206C44.953 64.3273 44.5596 63.9406 44.253 63.4606C43.9463 62.9806 43.793 62.3673 43.793 61.6206C43.793 60.8606 43.993 60.1673 44.393 59.5406C44.8063 58.9006 45.4263 58.394 46.253 58.0206C47.093 57.634 48.153 57.4406 49.433 57.4406C50.273 57.4406 51.1063 57.5473 51.933 57.7606C52.7596 57.974 53.4796 58.2806 54.093 58.6806L53.273 60.7006C52.6463 60.3273 51.9996 60.054 51.333 59.8806C50.6663 59.694 50.0263 59.6006 49.413 59.6006C48.693 59.6006 48.1063 59.6873 47.653 59.8606C47.213 60.034 46.8863 60.2606 46.673 60.5406C46.473 60.8206 46.373 61.1406 46.373 61.5006C46.373 61.9273 46.5196 62.274 46.813 62.5406C47.1196 62.794 47.513 62.994 47.993 63.1406C48.4863 63.2873 49.033 63.434 49.633 63.5806C50.233 63.714 50.8263 63.8673 51.413 64.0406C52.013 64.214 52.553 64.4406 53.033 64.7206C53.5263 65.0006 53.9196 65.3806 54.213 65.8606C54.5196 66.3406 54.673 66.9473 54.673 67.6806C54.673 68.4273 54.4663 69.1206 54.053 69.7606C53.653 70.3873 53.033 70.894 52.193 71.2806C51.353 71.654 50.293 71.8406 49.013 71.8406ZM61.8111 71.7806C60.7178 71.7806 59.7444 71.5473 58.8911 71.0806C58.0378 70.6006 57.3644 69.9473 56.8711 69.1206C56.3778 68.294 56.1311 67.354 56.1311 66.3006C56.1311 65.234 56.3778 64.294 56.8711 63.4806C57.3644 62.654 58.0378 62.0073 58.8911 61.5406C59.7444 61.074 60.7178 60.8406 61.8111 60.8406C62.9178 60.8406 63.8978 61.074 64.7511 61.5406C65.6178 62.0073 66.2911 62.6473 66.7711 63.4606C67.2644 64.274 67.5111 65.2206 67.5111 66.3006C67.5111 67.354 67.2644 68.294 66.7711 69.1206C66.2911 69.9473 65.6178 70.6006 64.7511 71.0806C63.8978 71.5473 62.9178 71.7806 61.8111 71.7806ZM61.8111 69.6406C62.4244 69.6406 62.9711 69.5073 63.4511 69.2406C63.9311 68.974 64.3044 68.5873 64.5711 68.0806C64.8511 67.574 64.9911 66.9806 64.9911 66.3006C64.9911 65.6073 64.8511 65.014 64.5711 64.5206C64.3044 64.014 63.9311 63.6273 63.4511 63.3606C62.9711 63.094 62.4311 62.9606 61.8311 62.9606C61.2178 62.9606 60.6711 63.094 60.1911 63.3606C59.7244 63.6273 59.3511 64.014 59.0711 64.5206C58.7911 65.014 58.6511 65.6073 58.6511 66.3006C58.6511 66.9806 58.7911 67.574 59.0711 68.0806C59.3511 68.5873 59.7244 68.974 60.1911 69.2406C60.6711 69.5073 61.2111 69.6406 61.8111 69.6406ZM74.4217 71.7806C73.5151 71.7806 72.7151 71.614 72.0217 71.2806C71.3284 70.934 70.7884 70.414 70.4017 69.7206C70.0151 69.014 69.8217 68.1273 69.8217 67.0606V60.9606H72.3217V66.7206C72.3217 67.6806 72.5351 68.4006 72.9617 68.8806C73.4017 69.3473 74.0217 69.5806 74.8217 69.5806C75.4084 69.5806 75.9151 69.4606 76.3417 69.2206C76.7817 68.9806 77.1217 68.6206 77.3617 68.1406C77.6151 67.6606 77.7417 67.0673 77.7417 66.3606V60.9606H80.2417V71.6406H77.8617V68.7606L78.2817 69.6406C77.9217 70.334 77.3951 70.8673 76.7017 71.2406C76.0084 71.6006 75.2484 71.7806 74.4217 71.7806ZM83.515 71.6406V60.9606H85.895V63.9006L85.615 63.0406C85.935 62.3206 86.435 61.774 87.115 61.4006C87.8083 61.0273 88.6683 60.8406 89.695 60.8406V63.2206C89.5883 63.194 89.4883 63.1806 89.395 63.1806C89.3017 63.1673 89.2083 63.1606 89.115 63.1606C88.1683 63.1606 87.415 63.4406 86.855 64.0006C86.295 64.5473 86.015 65.3673 86.015 66.4606V71.6406H83.515ZM96.6181 71.7806C95.4981 71.7806 94.4981 71.5473 93.6181 71.0806C92.7515 70.6006 92.0715 69.9473 91.5781 69.1206C91.0848 68.294 90.8381 67.354 90.8381 66.3006C90.8381 65.234 91.0848 64.294 91.5781 63.4806C92.0715 62.654 92.7515 62.0073 93.6181 61.5406C94.4981 61.074 95.4981 60.8406 96.6181 60.8406C97.6581 60.8406 98.5715 61.054 99.3581 61.4806C100.158 61.894 100.765 62.5073 101.178 63.3206L99.2581 64.4406C98.9381 63.934 98.5448 63.5606 98.0781 63.3206C97.6248 63.0806 97.1315 62.9606 96.5981 62.9606C95.9848 62.9606 95.4315 63.094 94.9381 63.3606C94.4448 63.6273 94.0581 64.014 93.7781 64.5206C93.4981 65.014 93.3581 65.6073 93.3581 66.3006C93.3581 66.994 93.4981 67.594 93.7781 68.1006C94.0581 68.594 94.4448 68.974 94.9381 69.2406C95.4315 69.5073 95.9848 69.6406 96.5981 69.6406C97.1315 69.6406 97.6248 69.5206 98.0781 69.2806C98.5448 69.0406 98.9381 68.6673 99.2581 68.1606L101.178 69.2806C100.765 70.0806 100.158 70.7006 99.3581 71.1406C98.5715 71.5673 97.6581 71.7806 96.6181 71.7806ZM108.203 71.7806C107.016 71.7806 105.976 71.5473 105.083 71.0806C104.203 70.6006 103.516 69.9473 103.023 69.1206C102.543 68.294 102.303 67.354 102.303 66.3006C102.303 65.234 102.536 64.294 103.003 63.4806C103.483 62.654 104.136 62.0073 104.963 61.5406C105.803 61.074 106.756 60.8406 107.823 60.8406C108.863 60.8406 109.79 61.0673 110.603 61.5206C111.416 61.974 112.056 62.614 112.523 63.4406C112.99 64.2673 113.223 65.2406 113.223 66.3606C113.223 66.4673 113.216 66.5873 113.203 66.7206C113.203 66.854 113.196 66.9806 113.183 67.1006H104.283V65.4406H111.863L110.883 65.9606C110.896 65.3473 110.77 64.8073 110.503 64.3406C110.236 63.874 109.87 63.5073 109.403 63.2406C108.95 62.974 108.423 62.8406 107.823 62.8406C107.21 62.8406 106.67 62.974 106.203 63.2406C105.75 63.5073 105.39 63.8806 105.123 64.3606C104.87 64.8273 104.743 65.3806 104.743 66.0206V66.4206C104.743 67.0606 104.89 67.6273 105.183 68.1206C105.476 68.614 105.89 68.994 106.423 69.2606C106.956 69.5273 107.57 69.6606 108.263 69.6606C108.863 69.6606 109.403 69.5673 109.883 69.3806C110.363 69.194 110.79 68.9006 111.163 68.5006L112.503 70.0406C112.023 70.6006 111.416 71.034 110.683 71.3406C109.963 71.634 109.136 71.7806 108.203 71.7806ZM118.924 71.7806C118.031 71.7806 117.171 71.6673 116.344 71.4406C115.531 71.2006 114.884 70.914 114.404 70.5806L115.364 68.6806C115.844 68.9873 116.418 69.2406 117.084 69.4406C117.751 69.6406 118.418 69.7406 119.084 69.7406C119.871 69.7406 120.438 69.634 120.784 69.4206C121.144 69.2073 121.324 68.9206 121.324 68.5606C121.324 68.2673 121.204 68.0473 120.964 67.9006C120.724 67.7406 120.411 67.6206 120.024 67.5406C119.638 67.4606 119.204 67.3873 118.724 67.3206C118.258 67.254 117.784 67.1673 117.304 67.0606C116.838 66.9406 116.411 66.774 116.024 66.5606C115.638 66.334 115.324 66.034 115.084 65.6606C114.844 65.2873 114.724 64.794 114.724 64.1806C114.724 63.5006 114.918 62.914 115.304 62.4206C115.691 61.914 116.231 61.5273 116.924 61.2606C117.631 60.9806 118.464 60.8406 119.424 60.8406C120.144 60.8406 120.871 60.9206 121.604 61.0806C122.338 61.2406 122.944 61.4673 123.424 61.7606L122.464 63.6606C121.958 63.354 121.444 63.1473 120.924 63.0406C120.418 62.9206 119.911 62.8606 119.404 62.8606C118.644 62.8606 118.078 62.974 117.704 63.2006C117.344 63.4273 117.164 63.714 117.164 64.0606C117.164 64.3806 117.284 64.6206 117.524 64.7806C117.764 64.9406 118.078 65.0673 118.464 65.1606C118.851 65.254 119.278 65.334 119.744 65.4006C120.224 65.454 120.698 65.5406 121.164 65.6606C121.631 65.7806 122.058 65.9473 122.444 66.1606C122.844 66.3606 123.164 66.6473 123.404 67.0206C123.644 67.394 123.764 67.8806 123.764 68.4806C123.764 69.1473 123.564 69.7273 123.164 70.2206C122.778 70.714 122.224 71.1006 121.504 71.3806C120.784 71.6473 119.924 71.7806 118.924 71.7806Z"/>
</mask>
<path d="M10.6227 71.6406L16.9227 57.6406H19.4827L25.8027 71.6406H23.0827L17.6627 59.0206H18.7027L13.3027 71.6406H10.6227ZM13.5227 68.4006L14.2227 66.3606H21.7827L22.4827 68.4006H13.5227ZM27.3431 71.6406V56.8006H29.8431V71.6406H27.3431ZM33.1244 71.6406V56.8006H35.6244V71.6406H33.1244ZM49.013 71.8406C47.9196 71.8406 46.873 71.6873 45.873 71.3806C44.873 71.0606 44.0796 70.654 43.493 70.1606L44.393 68.1406C44.953 68.5806 45.6463 68.9473 46.473 69.2406C47.2996 69.534 48.1463 69.6806 49.013 69.6806C49.7463 69.6806 50.3396 69.6006 50.793 69.4406C51.2463 69.2806 51.5796 69.0673 51.793 68.8006C52.0063 68.5206 52.113 68.2073 52.113 67.8606C52.113 67.434 51.9596 67.094 51.653 66.8406C51.3463 66.574 50.9463 66.3673 50.453 66.2206C49.973 66.0606 49.433 65.914 48.833 65.7806C48.2463 65.6473 47.653 65.494 47.053 65.3206C46.4663 65.134 45.9263 64.9006 45.433 64.6206C44.953 64.3273 44.5596 63.9406 44.253 63.4606C43.9463 62.9806 43.793 62.3673 43.793 61.6206C43.793 60.8606 43.993 60.1673 44.393 59.5406C44.8063 58.9006 45.4263 58.394 46.253 58.0206C47.093 57.634 48.153 57.4406 49.433 57.4406C50.273 57.4406 51.1063 57.5473 51.933 57.7606C52.7596 57.974 53.4796 58.2806 54.093 58.6806L53.273 60.7006C52.6463 60.3273 51.9996 60.054 51.333 59.8806C50.6663 59.694 50.0263 59.6006 49.413 59.6006C48.693 59.6006 48.1063 59.6873 47.653 59.8606C47.213 60.034 46.8863 60.2606 46.673 60.5406C46.473 60.8206 46.373 61.1406 46.373 61.5006C46.373 61.9273 46.5196 62.274 46.813 62.5406C47.1196 62.794 47.513 62.994 47.993 63.1406C48.4863 63.2873 49.033 63.434 49.633 63.5806C50.233 63.714 50.8263 63.8673 51.413 64.0406C52.013 64.214 52.553 64.4406 53.033 64.7206C53.5263 65.0006 53.9196 65.3806 54.213 65.8606C54.5196 66.3406 54.673 66.9473 54.673 67.6806C54.673 68.4273 54.4663 69.1206 54.053 69.7606C53.653 70.3873 53.033 70.894 52.193 71.2806C51.353 71.654 50.293 71.8406 49.013 71.8406ZM61.8111 71.7806C60.7178 71.7806 59.7444 71.5473 58.8911 71.0806C58.0378 70.6006 57.3644 69.9473 56.8711 69.1206C56.3778 68.294 56.1311 67.354 56.1311 66.3006C56.1311 65.234 56.3778 64.294 56.8711 63.4806C57.3644 62.654 58.0378 62.0073 58.8911 61.5406C59.7444 61.074 60.7178 60.8406 61.8111 60.8406C62.9178 60.8406 63.8978 61.074 64.7511 61.5406C65.6178 62.0073 66.2911 62.6473 66.7711 63.4606C67.2644 64.274 67.5111 65.2206 67.5111 66.3006C67.5111 67.354 67.2644 68.294 66.7711 69.1206C66.2911 69.9473 65.6178 70.6006 64.7511 71.0806C63.8978 71.5473 62.9178 71.7806 61.8111 71.7806ZM61.8111 69.6406C62.4244 69.6406 62.9711 69.5073 63.4511 69.2406C63.9311 68.974 64.3044 68.5873 64.5711 68.0806C64.8511 67.574 64.9911 66.9806 64.9911 66.3006C64.9911 65.6073 64.8511 65.014 64.5711 64.5206C64.3044 64.014 63.9311 63.6273 63.4511 63.3606C62.9711 63.094 62.4311 62.9606 61.8311 62.9606C61.2178 62.9606 60.6711 63.094 60.1911 63.3606C59.7244 63.6273 59.3511 64.014 59.0711 64.5206C58.7911 65.014 58.6511 65.6073 58.6511 66.3006C58.6511 66.9806 58.7911 67.574 59.0711 68.0806C59.3511 68.5873 59.7244 68.974 60.1911 69.2406C60.6711 69.5073 61.2111 69.6406 61.8111 69.6406ZM74.4217 71.7806C73.5151 71.7806 72.7151 71.614 72.0217 71.2806C71.3284 70.934 70.7884 70.414 70.4017 69.7206C70.0151 69.014 69.8217 68.1273 69.8217 67.0606V60.9606H72.3217V66.7206C72.3217 67.6806 72.5351 68.4006 72.9617 68.8806C73.4017 69.3473 74.0217 69.5806 74.8217 69.5806C75.4084 69.5806 75.9151 69.4606 76.3417 69.2206C76.7817 68.9806 77.1217 68.6206 77.3617 68.1406C77.6151 67.6606 77.7417 67.0673 77.7417 66.3606V60.9606H80.2417V71.6406H77.8617V68.7606L78.2817 69.6406C77.9217 70.334 77.3951 70.8673 76.7017 71.2406C76.0084 71.6006 75.2484 71.7806 74.4217 71.7806ZM83.515 71.6406V60.9606H85.895V63.9006L85.615 63.0406C85.935 62.3206 86.435 61.774 87.115 61.4006C87.8083 61.0273 88.6683 60.8406 89.695 60.8406V63.2206C89.5883 63.194 89.4883 63.1806 89.395 63.1806C89.3017 63.1673 89.2083 63.1606 89.115 63.1606C88.1683 63.1606 87.415 63.4406 86.855 64.0006C86.295 64.5473 86.015 65.3673 86.015 66.4606V71.6406H83.515ZM96.6181 71.7806C95.4981 71.7806 94.4981 71.5473 93.6181 71.0806C92.7515 70.6006 92.0715 69.9473 91.5781 69.1206C91.0848 68.294 90.8381 67.354 90.8381 66.3006C90.8381 65.234 91.0848 64.294 91.5781 63.4806C92.0715 62.654 92.7515 62.0073 93.6181 61.5406C94.4981 61.074 95.4981 60.8406 96.6181 60.8406C97.6581 60.8406 98.5715 61.054 99.3581 61.4806C100.158 61.894 100.765 62.5073 101.178 63.3206L99.2581 64.4406C98.9381 63.934 98.5448 63.5606 98.0781 63.3206C97.6248 63.0806 97.1315 62.9606 96.5981 62.9606C95.9848 62.9606 95.4315 63.094 94.9381 63.3606C94.4448 63.6273 94.0581 64.014 93.7781 64.5206C93.4981 65.014 93.3581 65.6073 93.3581 66.3006C93.3581 66.994 93.4981 67.594 93.7781 68.1006C94.0581 68.594 94.4448 68.974 94.9381 69.2406C95.4315 69.5073 95.9848 69.6406 96.5981 69.6406C97.1315 69.6406 97.6248 69.5206 98.0781 69.2806C98.5448 69.0406 98.9381 68.6673 99.2581 68.1606L101.178 69.2806C100.765 70.0806 100.158 70.7006 99.3581 71.1406C98.5715 71.5673 97.6581 71.7806 96.6181 71.7806ZM108.203 71.7806C107.016 71.7806 105.976 71.5473 105.083 71.0806C104.203 70.6006 103.516 69.9473 103.023 69.1206C102.543 68.294 102.303 67.354 102.303 66.3006C102.303 65.234 102.536 64.294 103.003 63.4806C103.483 62.654 104.136 62.0073 104.963 61.5406C105.803 61.074 106.756 60.8406 107.823 60.8406C108.863 60.8406 109.79 61.0673 110.603 61.5206C111.416 61.974 112.056 62.614 112.523 63.4406C112.99 64.2673 113.223 65.2406 113.223 66.3606C113.223 66.4673 113.216 66.5873 113.203 66.7206C113.203 66.854 113.196 66.9806 113.183 67.1006H104.283V65.4406H111.863L110.883 65.9606C110.896 65.3473 110.77 64.8073 110.503 64.3406C110.236 63.874 109.87 63.5073 109.403 63.2406C108.95 62.974 108.423 62.8406 107.823 62.8406C107.21 62.8406 106.67 62.974 106.203 63.2406C105.75 63.5073 105.39 63.8806 105.123 64.3606C104.87 64.8273 104.743 65.3806 104.743 66.0206V66.4206C104.743 67.0606 104.89 67.6273 105.183 68.1206C105.476 68.614 105.89 68.994 106.423 69.2606C106.956 69.5273 107.57 69.6606 108.263 69.6606C108.863 69.6606 109.403 69.5673 109.883 69.3806C110.363 69.194 110.79 68.9006 111.163 68.5006L112.503 70.0406C112.023 70.6006 111.416 71.034 110.683 71.3406C109.963 71.634 109.136 71.7806 108.203 71.7806ZM118.924 71.7806C118.031 71.7806 117.171 71.6673 116.344 71.4406C115.531 71.2006 114.884 70.914 114.404 70.5806L115.364 68.6806C115.844 68.9873 116.418 69.2406 117.084 69.4406C117.751 69.6406 118.418 69.7406 119.084 69.7406C119.871 69.7406 120.438 69.634 120.784 69.4206C121.144 69.2073 121.324 68.9206 121.324 68.5606C121.324 68.2673 121.204 68.0473 120.964 67.9006C120.724 67.7406 120.411 67.6206 120.024 67.5406C119.638 67.4606 119.204 67.3873 118.724 67.3206C118.258 67.254 117.784 67.1673 117.304 67.0606C116.838 66.9406 116.411 66.774 116.024 66.5606C115.638 66.334 115.324 66.034 115.084 65.6606C114.844 65.2873 114.724 64.794 114.724 64.1806C114.724 63.5006 114.918 62.914 115.304 62.4206C115.691 61.914 116.231 61.5273 116.924 61.2606C117.631 60.9806 118.464 60.8406 119.424 60.8406C120.144 60.8406 120.871 60.9206 121.604 61.0806C122.338 61.2406 122.944 61.4673 123.424 61.7606L122.464 63.6606C121.958 63.354 121.444 63.1473 120.924 63.0406C120.418 62.9206 119.911 62.8606 119.404 62.8606C118.644 62.8606 118.078 62.974 117.704 63.2006C117.344 63.4273 117.164 63.714 117.164 64.0606C117.164 64.3806 117.284 64.6206 117.524 64.7806C117.764 64.9406 118.078 65.0673 118.464 65.1606C118.851 65.254 119.278 65.334 119.744 65.4006C120.224 65.454 120.698 65.5406 121.164 65.6606C121.631 65.7806 122.058 65.9473 122.444 66.1606C122.844 66.3606 123.164 66.6473 123.404 67.0206C123.644 67.394 123.764 67.8806 123.764 68.4806C123.764 69.1473 123.564 69.7273 123.164 70.2206C122.778 70.714 122.224 71.1006 121.504 71.3806C120.784 71.6473 119.924 71.7806 118.924 71.7806Z" fill="white"/>
<path d="M10.6227 71.6406L9.71073 71.2303L9.07607 72.6406H10.6227V71.6406ZM16.9227 57.6406V56.6406H16.2761L16.0107 57.2303L16.9227 57.6406ZM19.4827 57.6406L20.3941 57.2292L20.1284 56.6406H19.4827V57.6406ZM25.8027 71.6406V72.6406H27.3513L26.7141 71.2292L25.8027 71.6406ZM23.0827 71.6406L22.1638 72.0352L22.4238 72.6406H23.0827V71.6406ZM17.6627 59.0206V58.0206H16.1449L16.7438 59.4152L17.6627 59.0206ZM18.7027 59.0206L19.622 59.414L20.2182 58.0206H18.7027V59.0206ZM13.3027 71.6406V72.6406H13.9625L14.222 72.034L13.3027 71.6406ZM13.5227 68.4006L12.5768 68.0761L12.1223 69.4006H13.5227V68.4006ZM14.2227 66.3606V65.3606H13.5086L13.2768 66.0361L14.2227 66.3606ZM21.7827 66.3606L22.7285 66.0361L22.4968 65.3606H21.7827V66.3606ZM22.4827 68.4006V69.4006H23.883L23.4285 68.0761L22.4827 68.4006ZM11.5346 72.051L17.8346 58.051L16.0107 57.2303L9.71073 71.2303L11.5346 72.051ZM16.9227 58.6406H19.4827V56.6406H16.9227V58.6406ZM18.5712 58.0521L24.8912 72.0521L26.7141 71.2292L20.3941 57.2292L18.5712 58.0521ZM25.8027 70.6406H23.0827V72.6406H25.8027V70.6406ZM24.0015 71.246L18.5815 58.626L16.7438 59.4152L22.1638 72.0352L24.0015 71.246ZM17.6627 60.0206H18.7027V58.0206H17.6627V60.0206ZM17.7833 58.6272L12.3833 71.2472L14.222 72.034L19.622 59.414L17.7833 58.6272ZM13.3027 70.6406H10.6227V72.6406H13.3027V70.6406ZM14.4685 68.7252L15.1685 66.6852L13.2768 66.0361L12.5768 68.0761L14.4685 68.7252ZM14.2227 67.3606H21.7827V65.3606H14.2227V67.3606ZM20.8368 66.6852L21.5368 68.7252L23.4285 68.0761L22.7285 66.0361L20.8368 66.6852ZM22.4827 67.4006H13.5227V69.4006H22.4827V67.4006ZM27.3431 71.6406H26.3431V72.6406H27.3431V71.6406ZM27.3431 56.8006V55.8006H26.3431V56.8006H27.3431ZM29.8431 56.8006H30.8431V55.8006H29.8431V56.8006ZM29.8431 71.6406V72.6406H30.8431V71.6406H29.8431ZM28.3431 71.6406V56.8006H26.3431V71.6406H28.3431ZM27.3431 57.8006H29.8431V55.8006H27.3431V57.8006ZM28.8431 56.8006V71.6406H30.8431V56.8006H28.8431ZM29.8431 70.6406H27.3431V72.6406H29.8431V70.6406ZM33.1244 71.6406H32.1244V72.6406H33.1244V71.6406ZM33.1244 56.8006V55.8006H32.1244V56.8006H33.1244ZM35.6244 56.8006H36.6244V55.8006H35.6244V56.8006ZM35.6244 71.6406V72.6406H36.6244V71.6406H35.6244ZM34.1244 71.6406V56.8006H32.1244V71.6406H34.1244ZM33.1244 57.8006H35.6244V55.8006H33.1244V57.8006ZM34.6244 56.8006V71.6406H36.6244V56.8006H34.6244ZM35.6244 70.6406H33.1244V72.6406H35.6244V70.6406ZM45.873 71.3806L45.5682 72.3331L45.5798 72.3367L45.873 71.3806ZM43.493 70.1606L42.5795 69.7536L42.2731 70.4414L42.8494 70.926L43.493 70.1606ZM44.393 68.1406L45.0108 67.3543L44.0018 66.5615L43.4795 67.7336L44.393 68.1406ZM46.473 69.2406L46.8074 68.2982L46.8074 68.2982L46.473 69.2406ZM50.793 69.4406L50.4601 68.4976L50.4601 68.4976L50.793 69.4406ZM51.793 68.8006L52.5738 69.4253L52.5812 69.4161L52.5884 69.4067L51.793 68.8006ZM51.653 66.8406L50.9968 67.5952L51.0063 67.6035L51.0161 67.6116L51.653 66.8406ZM50.453 66.2206L50.1367 67.1693L50.1523 67.1745L50.168 67.1792L50.453 66.2206ZM48.833 65.7806L48.6113 66.7558L48.616 66.7568L48.833 65.7806ZM47.053 65.3206L46.7498 66.2736L46.7625 66.2776L46.7754 66.2813L47.053 65.3206ZM45.433 64.6206L44.9115 65.4739L44.9253 65.4823L44.9394 65.4903L45.433 64.6206ZM44.253 63.4606L43.4103 63.999L43.4103 63.999L44.253 63.4606ZM44.393 59.5406L43.5529 58.9981L43.55 59.0026L44.393 59.5406ZM46.253 58.0206L46.6646 58.932L46.6711 58.929L46.253 58.0206ZM51.933 57.7606L51.6831 58.7289L51.6831 58.7289L51.933 57.7606ZM54.093 58.6806L55.0195 59.0568L55.3295 58.2932L54.6392 57.843L54.093 58.6806ZM53.273 60.7006L52.7612 61.5597L53.7615 62.1557L54.1995 61.0768L53.273 60.7006ZM51.333 59.8806L51.0633 60.8436L51.0723 60.8461L51.0813 60.8484L51.333 59.8806ZM47.653 59.8606L47.2958 58.9265L47.2864 58.9302L47.653 59.8606ZM46.673 60.5406L45.8775 59.9346L45.8682 59.9468L45.8592 59.9594L46.673 60.5406ZM46.813 62.5406L46.1403 63.2806L46.1578 63.2965L46.1761 63.3116L46.813 62.5406ZM47.993 63.1406L47.7007 64.097L47.708 64.0992L47.993 63.1406ZM49.633 63.5806L49.3955 64.552L49.4058 64.5545L49.416 64.5568L49.633 63.5806ZM51.413 64.0406L51.1296 64.9997L51.1354 65.0013L51.413 64.0406ZM53.033 64.7206L52.5291 65.5845L52.5394 65.5903L53.033 64.7206ZM54.213 65.8606L53.3597 66.3821L53.3649 66.3906L53.3703 66.399L54.213 65.8606ZM54.053 69.7606L53.2129 69.2181L53.21 69.2226L54.053 69.7606ZM52.193 71.2806L52.5991 72.1945L52.6111 72.189L52.193 71.2806ZM49.013 70.8406C48.0145 70.8406 47.0669 70.7008 46.1662 70.4246L45.5798 72.3367C46.679 72.6738 47.8248 72.8406 49.013 72.8406V70.8406ZM46.1777 70.4282C45.2589 70.1342 44.5941 69.78 44.1366 69.3953L42.8494 70.926C43.5652 71.528 44.4871 71.9871 45.5682 72.333L46.1777 70.4282ZM44.4064 70.5676L45.3064 68.5476L43.4795 67.7336L42.5795 69.7536L44.4064 70.5676ZM43.7751 68.9269C44.4377 69.4475 45.2324 69.8615 46.1386 70.1831L46.8074 68.2982C46.0602 68.0331 45.4683 67.7138 45.0108 67.3543L43.7751 68.9269ZM46.1386 70.1831C47.0713 70.514 48.031 70.6806 49.013 70.6806V68.6806C48.2616 68.6806 47.528 68.5539 46.8074 68.2982L46.1386 70.1831ZM49.013 70.6806C49.8065 70.6806 50.5248 70.5957 51.1258 70.3836L50.4601 68.4976C50.1544 68.6055 49.6861 68.6806 49.013 68.6806V70.6806ZM51.1258 70.3836C51.6867 70.1856 52.2055 69.8858 52.5738 69.4253L51.0121 68.1759C50.9538 68.2488 50.8059 68.3756 50.4601 68.4976L51.1258 70.3836ZM52.5884 69.4067C52.9322 68.9554 53.113 68.4299 53.113 67.8606H51.113C51.113 67.9847 51.0804 68.0859 50.9975 68.1946L52.5884 69.4067ZM53.113 67.8606C53.113 67.1604 52.8449 66.5282 52.2899 66.0697L51.0161 67.6116C51.0744 67.6597 51.113 67.7075 51.113 67.8606H53.113ZM52.3091 66.086C51.87 65.7042 51.3329 65.439 50.7379 65.2621L50.168 67.1792C50.5597 67.2956 50.8226 67.4437 50.9968 67.5952L52.3091 66.086ZM50.7692 65.2719C50.2506 65.0991 49.6766 64.9437 49.0499 64.8044L48.616 66.7568C49.1893 66.8842 49.6954 67.0222 50.1367 67.1693L50.7692 65.2719ZM49.0546 64.8055C48.4874 64.6766 47.9127 64.5281 47.3305 64.3599L46.7754 66.2813C47.3932 66.4598 48.0052 66.618 48.6113 66.7558L49.0546 64.8055ZM47.3562 64.3677C46.8301 64.2003 46.3546 63.9939 45.9266 63.7509L44.9394 65.4903C45.498 65.8074 46.1025 66.0676 46.7498 66.2736L47.3562 64.3677ZM45.9544 63.7673C45.6057 63.5542 45.3216 63.2759 45.0957 62.9222L43.4103 63.999C43.7977 64.6053 44.3002 65.1003 44.9115 65.4739L45.9544 63.7673ZM45.0957 62.9222C44.9191 62.6459 44.793 62.2347 44.793 61.6206H42.793C42.793 62.4999 42.9735 63.3154 43.4103 63.999L45.0957 62.9222ZM44.793 61.6206C44.793 61.0468 44.9409 60.5409 45.2359 60.0787L43.55 59.0026C43.0451 59.7937 42.793 60.6745 42.793 61.6206H44.793ZM45.233 60.0831C45.5235 59.6334 45.9793 59.2415 46.6646 58.932L45.8414 57.1093C44.8733 57.5465 44.0891 58.1679 43.5529 58.9981L45.233 60.0831ZM46.6711 58.929C47.3398 58.6212 48.2453 58.4406 49.433 58.4406V56.4406C48.0607 56.4406 46.8462 56.6467 45.8348 57.1122L46.6711 58.929ZM49.433 58.4406C50.1873 58.4406 50.9367 58.5363 51.6831 58.7289L52.1828 56.7923C51.2759 56.5583 50.3586 56.4406 49.433 56.4406V58.4406ZM51.6831 58.7289C52.4216 58.9195 53.0381 59.1865 53.5467 59.5182L54.6392 57.843C53.9212 57.3747 53.0977 57.0284 52.1828 56.7923L51.6831 58.7289ZM53.1664 58.3045L52.3464 60.3245L54.1995 61.0768L55.0195 59.0568L53.1664 58.3045ZM53.7848 59.8415C53.0817 59.4227 52.3479 59.1113 51.5846 58.9128L51.0813 60.8484C51.6513 60.9966 52.2109 61.2319 52.7612 61.5597L53.7848 59.8415ZM51.6026 58.9177C50.8593 58.7095 50.1283 58.6006 49.413 58.6006V60.6006C49.9243 60.6006 50.4733 60.6784 51.0633 60.8436L51.6026 58.9177ZM49.413 58.6006C48.6243 58.6006 47.9043 58.6939 47.2958 58.9266L48.0101 60.7947C48.3083 60.6806 48.7616 60.6006 49.413 60.6006V58.6006ZM47.2864 58.9302C46.733 59.1482 46.2333 59.4676 45.8775 59.9346L47.4684 61.1467C47.5393 61.0536 47.6929 60.9197 48.0195 60.791L47.2864 58.9302ZM45.8592 59.9594C45.5323 60.4171 45.373 60.9425 45.373 61.5006H47.373C47.373 61.3388 47.4137 61.2241 47.4867 61.1219L45.8592 59.9594ZM45.373 61.5006C45.373 62.1849 45.6213 62.8087 46.1403 63.2806L47.4856 61.8007C47.418 61.7392 47.373 61.6697 47.373 61.5006H45.373ZM46.1761 63.3116C46.6071 63.6677 47.1265 63.9215 47.7008 64.097L48.2852 62.1843C47.8994 62.0664 47.6322 61.9203 47.4499 61.7697L46.1761 63.3116ZM47.708 64.0992C48.2198 64.2513 48.7826 64.4022 49.3955 64.552L49.8704 62.6092C49.2833 62.4657 48.7528 62.3233 48.2779 62.1821L47.708 64.0992ZM49.416 64.5568C49.9938 64.6852 50.565 64.8328 51.1296 64.9996L51.6963 63.0816C51.0876 62.9018 50.4721 62.7427 49.8499 62.6044L49.416 64.5568ZM51.1354 65.0013C51.6659 65.1546 52.1284 65.3507 52.5291 65.5844L53.5368 63.8568C52.9775 63.5306 52.36 63.2733 51.6905 63.0799L51.1354 65.0013ZM52.5394 65.5903C52.8865 65.7873 53.1556 66.048 53.3597 66.3821L55.0663 65.3392C54.6837 64.7132 54.1661 64.2139 53.5266 63.8509L52.5394 65.5903ZM53.3703 66.399C53.5485 66.678 53.673 67.0839 53.673 67.6806H55.673C55.673 66.8107 55.4908 66.0033 55.0557 65.3222L53.3703 66.399ZM53.673 67.6806C53.673 68.2307 53.5241 68.7363 53.2129 69.2181L54.893 70.3032C55.4085 69.505 55.673 68.6239 55.673 67.6806H53.673ZM53.21 69.2226C52.9358 69.6523 52.4831 70.0462 51.7748 70.3722L52.6111 72.189C53.5828 71.7417 54.3702 71.1223 54.8959 70.2987L53.21 69.2226ZM51.7868 70.3668C51.1145 70.6656 50.2044 70.8406 49.013 70.8406V72.8406C50.3816 72.8406 51.5915 72.6423 52.5991 72.1944L51.7868 70.3668ZM58.8911 71.0806L58.4008 71.9523L58.4113 71.958L58.8911 71.0806ZM56.8711 69.1206L56.0124 69.6331L56.0124 69.6331L56.8711 69.1206ZM56.8711 63.4806L57.7261 63.9993L57.7298 63.9931L56.8711 63.4806ZM58.8911 61.5406L59.3709 62.418L59.3709 62.418L58.8911 61.5406ZM64.7511 61.5406L64.2713 62.418L64.277 62.4211L64.7511 61.5406ZM66.7711 63.4606L65.9098 63.9689L65.9161 63.9792L66.7711 63.4606ZM66.7711 69.1206L65.9123 68.6081L65.9063 68.6185L66.7711 69.1206ZM64.7511 71.0806L65.2309 71.958L65.2356 71.9554L64.7511 71.0806ZM63.4511 69.2406L62.9655 68.3665L62.9655 68.3665L63.4511 69.2406ZM64.5711 68.0806L63.6959 67.5969L63.6909 67.6059L63.6862 67.6149L64.5711 68.0806ZM64.5711 64.5206L63.6862 64.9864L63.6936 65.0004L63.7014 65.0142L64.5711 64.5206ZM63.4511 63.3606L63.9367 62.4865L63.9367 62.4865L63.4511 63.3606ZM60.1911 63.3606L59.7054 62.4864L59.695 62.4924L60.1911 63.3606ZM59.0711 64.5206L59.9408 65.0143L59.9463 65.0043L59.0711 64.5206ZM59.0711 68.0806L58.1959 68.5643L58.1959 68.5643L59.0711 68.0806ZM60.1911 69.2406L59.6949 70.1089L59.7055 70.1148L60.1911 69.2406ZM61.8111 70.7806C60.8643 70.7806 60.0596 70.5799 59.3709 70.2033L58.4113 71.958C59.4292 72.5147 60.5712 72.7806 61.8111 72.7806V70.7806ZM59.3814 70.209C58.6773 69.813 58.1322 69.2824 57.7298 68.6082L56.0124 69.6331C56.5967 70.6122 57.3982 71.3882 58.4008 71.9522L59.3814 70.209ZM57.7298 68.6082C57.3375 67.9508 57.1311 67.1911 57.1311 66.3006H55.1311C55.1311 67.5169 55.418 68.6371 56.0124 69.6331L57.7298 68.6082ZM57.1311 66.3006C57.1311 65.3941 57.3388 64.6378 57.7261 63.9992L56.0161 62.962C55.4168 63.9501 55.1311 65.0738 55.1311 66.3006H57.1311ZM57.7298 63.9931C58.1307 63.3213 58.6725 62.7999 59.3709 62.418L58.4113 60.6633C57.403 61.2146 56.5982 61.9866 56.0124 62.9682L57.7298 63.9931ZM59.3709 62.418C60.0596 62.0414 60.8643 61.8406 61.8111 61.8406V59.8406C60.5712 59.8406 59.4292 60.1066 58.4113 60.6633L59.3709 62.418ZM61.8111 61.8406C62.7735 61.8406 63.5843 62.0423 64.2713 62.418L65.2309 60.6633C64.2112 60.1056 63.062 59.8406 61.8111 59.8406V61.8406ZM64.277 62.4211C64.9902 62.8051 65.5266 63.3194 65.9099 63.9689L67.6323 62.9524C67.0556 61.9752 66.2453 61.2095 65.2252 60.6602L64.277 62.4211ZM65.9161 63.9792C66.3023 64.6159 66.5111 65.3782 66.5111 66.3006H68.5111C68.5111 65.0631 68.2266 63.932 67.6261 62.942L65.9161 63.9792ZM66.5111 66.3006C66.5111 67.1911 66.3047 67.9508 65.9124 68.6082L67.6298 69.6331C68.2242 68.6371 68.5111 67.5169 68.5111 66.3006H66.5111ZM65.9063 68.6185C65.5205 69.283 64.9812 69.8101 64.2666 70.2058L65.2356 71.9554C66.2543 71.3912 67.0617 70.6116 67.6359 69.6228L65.9063 68.6185ZM64.2713 70.2033C63.5843 70.5789 62.7735 70.7806 61.8111 70.7806V72.7806C63.062 72.7806 64.2112 72.5157 65.2309 71.958L64.2713 70.2033ZM61.8111 70.6406C62.5741 70.6406 63.2914 70.4733 63.9367 70.1148L62.9655 68.3665C62.6508 68.5413 62.2747 68.6406 61.8111 68.6406V70.6406ZM63.9367 70.1148C64.5942 69.7495 65.1029 69.2173 65.456 68.5464L63.6862 67.6149C63.506 67.9572 63.268 68.1984 62.9655 68.3665L63.9367 70.1148ZM65.4463 68.5643C65.8214 67.8856 65.9911 67.1201 65.9911 66.3006H63.9911C63.9911 66.8411 63.8808 67.2623 63.6959 67.5969L65.4463 68.5643ZM65.9911 66.3006C65.9911 65.4725 65.8233 64.7009 65.4408 64.027L63.7014 65.0142C63.8789 65.327 63.9911 65.7421 63.9911 66.3006H65.9911ZM65.456 64.0549C65.1029 63.3839 64.5942 62.8517 63.9367 62.4865L62.9655 64.2348C63.268 64.4029 63.506 64.644 63.6862 64.9864L65.456 64.0549ZM63.9367 62.4865C63.2947 62.1298 62.5849 61.9606 61.8311 61.9606V63.9606C62.2773 63.9606 62.6475 64.0582 62.9655 64.2348L63.9367 62.4865ZM61.8311 61.9606C61.0681 61.9606 60.3508 62.128 59.7055 62.4865L60.6767 64.2348C60.9914 64.06 61.3674 63.9606 61.8311 63.9606V61.9606ZM59.695 62.4924C59.0568 62.8571 58.5575 63.3826 58.1959 64.0369L59.9463 65.0043C60.1447 64.6453 60.3921 64.3975 60.6872 64.2289L59.695 62.4924ZM58.2014 64.027C57.8189 64.7009 57.6511 65.4725 57.6511 66.3006H59.6511C59.6511 65.7421 59.7633 65.327 59.9408 65.0142L58.2014 64.027ZM57.6511 66.3006C57.6511 67.1201 57.8208 67.8856 58.1959 68.5643L59.9463 67.5969C59.7614 67.2623 59.6511 66.8411 59.6511 66.3006H57.6511ZM58.1959 68.5643C58.5575 69.2187 59.0568 69.7442 59.695 70.1089L60.6872 68.3724C60.3921 68.2037 60.1447 67.9559 59.9463 67.5969L58.1959 68.5643ZM59.7055 70.1148C60.3475 70.4715 61.0573 70.6406 61.8111 70.6406V68.6406C61.3649 68.6406 60.9947 68.5431 60.6767 68.3665L59.7055 70.1148ZM72.0217 71.2806L71.5745 72.1751L71.5814 72.1785L71.5884 72.1819L72.0217 71.2806ZM70.4017 69.7206L69.5244 70.2007L69.5284 70.2077L70.4017 69.7206ZM69.8217 60.9606V59.9606H68.8217V60.9606H69.8217ZM72.3217 60.9606H73.3217V59.9606H72.3217V60.9606ZM72.9617 68.8806L72.2143 69.545L72.2241 69.556L72.2341 69.5666L72.9617 68.8806ZM76.3417 69.2206L75.8628 68.3427L75.8515 68.349L76.3417 69.2206ZM77.3617 68.1406L76.4773 67.6739L76.4722 67.6836L76.4673 67.6934L77.3617 68.1406ZM77.7417 60.9606V59.9606H76.7417V60.9606H77.7417ZM80.2417 60.9606H81.2417V59.9606H80.2417V60.9606ZM80.2417 71.6406V72.6406H81.2417V71.6406H80.2417ZM77.8617 71.6406H76.8617V72.6406H77.8617V71.6406ZM77.8617 68.7606L78.7642 68.3299L76.8617 68.7606H77.8617ZM78.2817 69.6406L79.1692 70.1014L79.3987 69.6594L79.1842 69.2099L78.2817 69.6406ZM76.7017 71.2406L77.1625 72.1281L77.1692 72.1247L77.1758 72.1211L76.7017 71.2406ZM74.4217 70.7806C73.6385 70.7806 72.9911 70.6371 72.455 70.3794L71.5884 72.1819C72.439 72.5908 73.3916 72.7806 74.4217 72.7806V70.7806ZM72.4689 70.3862C71.9599 70.1317 71.5664 69.7559 71.2751 69.2336L69.5284 70.2077C70.0104 71.072 70.6969 71.7362 71.5745 72.1751L72.4689 70.3862ZM71.279 69.2406C70.9947 68.7212 70.8217 68.012 70.8217 67.0606H68.8217C68.8217 68.2426 69.0354 69.3068 69.5245 70.2006L71.279 69.2406ZM70.8217 67.0606V60.9606H68.8217V67.0606H70.8217ZM69.8217 61.9606H72.3217V59.9606H69.8217V61.9606ZM71.3217 60.9606V66.7206H73.3217V60.9606H71.3217ZM71.3217 66.7206C71.3217 67.8077 71.5607 68.8097 72.2143 69.545L73.7091 68.2163C73.5094 67.9915 73.3217 67.5536 73.3217 66.7206H71.3217ZM72.2341 69.5666C72.9077 70.2811 73.819 70.5806 74.8217 70.5806V68.5806C74.2245 68.5806 73.8957 68.4135 73.6893 68.1946L72.2341 69.5666ZM74.8217 70.5806C75.5461 70.5806 76.2285 70.4316 76.832 70.0922L75.8515 68.349C75.6016 68.4896 75.2707 68.5806 74.8217 68.5806V70.5806ZM76.8206 70.0985C77.4527 69.7537 77.9316 69.2368 78.2561 68.5878L76.4673 67.6934C76.3118 68.0044 76.1107 68.2075 75.8629 68.3427L76.8206 70.0985ZM78.2461 68.6074C78.5948 67.9466 78.7417 67.1824 78.7417 66.3606H76.7417C76.7417 66.9522 76.6353 67.3746 76.4773 67.6739L78.2461 68.6074ZM78.7417 66.3606V60.9606H76.7417V66.3606H78.7417ZM77.7417 61.9606H80.2417V59.9606H77.7417V61.9606ZM79.2417 60.9606V71.6406H81.2417V60.9606H79.2417ZM80.2417 70.6406H77.8617V72.6406H80.2417V70.6406ZM78.8617 71.6406V68.7606H76.8617V71.6406H78.8617ZM76.9592 69.1914L77.3792 70.0714L79.1842 69.2099L78.7642 68.3299L76.9592 69.1914ZM77.3942 69.1798C77.1275 69.6934 76.7457 70.0812 76.2276 70.3602L77.1758 72.1211C78.0445 71.6534 78.7159 70.9745 79.1692 70.1014L77.3942 69.1798ZM76.2409 70.3531C75.6982 70.6349 75.0976 70.7806 74.4217 70.7806V72.7806C75.3992 72.7806 76.3186 72.5663 77.1625 72.1281L76.2409 70.3531ZM83.515 71.6406H82.515V72.6406H83.515V71.6406ZM83.515 60.9606V59.9606H82.515V60.9606H83.515ZM85.895 60.9606H86.895V59.9606H85.895V60.9606ZM85.895 63.9006L84.9441 64.2102L86.895 63.9006H85.895ZM85.615 63.0406L84.7012 62.6345L84.5453 62.9852L84.6641 63.3502L85.615 63.0406ZM87.115 61.4006L86.6409 60.5201L86.6337 60.524L87.115 61.4006ZM89.695 60.8406H90.695V59.8406H89.695V60.8406ZM89.695 63.2206L89.4525 64.1908L90.695 64.5014V63.2206H89.695ZM89.395 63.1806L89.2536 64.1706L89.3239 64.1806H89.395V63.1806ZM86.855 64.0006L87.5536 64.7163L87.5621 64.7077L86.855 64.0006ZM86.015 71.6406V72.6406H87.015V71.6406H86.015ZM84.515 71.6406V60.9606H82.515V71.6406H84.515ZM83.515 61.9606H85.895V59.9606H83.515V61.9606ZM84.895 60.9606V63.9006H86.895V60.9606H84.895ZM86.8459 63.591L86.5659 62.731L84.6641 63.3502L84.9441 64.2102L86.8459 63.591ZM86.5288 63.4468C86.7615 62.9233 87.1112 62.5435 87.5963 62.2772L86.6337 60.524C85.7588 61.0044 85.1085 61.718 84.7012 62.6345L86.5288 63.4468ZM87.5891 62.2811C88.0992 62.0065 88.7851 61.8406 89.695 61.8406V59.8406C88.5515 59.8406 87.5175 60.0481 86.6409 60.5202L87.5891 62.2811ZM88.695 60.8406V63.2206H90.695V60.8406H88.695ZM89.9375 62.2505C89.7652 62.2074 89.5831 62.1806 89.395 62.1806V64.1806C89.3936 64.1806 89.4115 64.1805 89.4525 64.1908L89.9375 62.2505ZM89.5364 62.1907C89.3967 62.1707 89.2561 62.1606 89.115 62.1606V64.1606C89.1605 64.1606 89.2066 64.1639 89.2536 64.1706L89.5364 62.1907ZM89.115 62.1606C87.9586 62.1606 86.9313 62.5101 86.1479 63.2935L87.5621 64.7077C87.8987 64.3712 88.378 64.1606 89.115 64.1606V62.1606ZM86.1565 63.2851C85.3376 64.0844 85.015 65.207 85.015 66.4606H87.015C87.015 65.5276 87.2524 65.0101 87.5535 64.7162L86.1565 63.2851ZM85.015 66.4606V71.6406H87.015V66.4606H85.015ZM86.015 70.6406H83.515V72.6406H86.015V70.6406ZM93.6181 71.0806L93.1336 71.9554L93.1416 71.9598L93.1496 71.9641L93.6181 71.0806ZM91.5781 69.1206L90.7194 69.6331L90.7194 69.6331L91.5781 69.1206ZM91.5781 63.4806L92.4332 63.9993L92.4368 63.9931L91.5781 63.4806ZM93.6181 61.5406L93.1496 60.6571L93.144 60.6602L93.6181 61.5406ZM99.3581 61.4806L98.8814 62.3597L98.8902 62.3644L98.8991 62.3691L99.3581 61.4806ZM101.178 63.3206L101.682 64.1844L102.497 63.7089L102.07 62.8676L101.178 63.3206ZM99.2581 64.4406L98.4126 64.9746L98.9281 65.7908L99.762 65.3044L99.2581 64.4406ZM98.0781 63.3206L97.6102 64.2045L97.6208 64.2099L98.0781 63.3206ZM94.9381 63.3606L94.4626 62.4809L94.4626 62.4809L94.9381 63.3606ZM93.7781 64.5206L94.6479 65.0143L94.6534 65.0043L93.7781 64.5206ZM93.7781 68.1006L92.9028 68.5843L92.9084 68.5942L93.7781 68.1006ZM94.9381 69.2406L95.4136 68.3609L95.4136 68.3609L94.9381 69.2406ZM98.0781 69.2806L97.6207 68.3913L97.6102 68.3968L98.0781 69.2806ZM99.2581 68.1606L99.762 67.2968L98.9281 66.8104L98.4126 67.6266L99.2581 68.1606ZM101.178 69.2806L102.067 69.7396L102.503 68.8956L101.682 68.4168L101.178 69.2806ZM99.3581 71.1406L99.8349 72.0197L99.84 72.0168L99.3581 71.1406ZM96.6181 70.7806C95.6409 70.7806 94.8052 70.5782 94.0866 70.1972L93.1496 71.9641C94.1911 72.5164 95.3554 72.7806 96.6181 72.7806V70.7806ZM94.1026 70.2058C93.3858 69.8088 92.8369 69.2786 92.4368 68.6082L90.7194 69.6331C91.306 70.616 92.1171 71.3924 93.1336 71.9554L94.1026 70.2058ZM92.4368 68.6082C92.0446 67.9508 91.8381 67.1911 91.8381 66.3006H89.8381C89.8381 67.5169 90.125 68.6371 90.7194 69.6331L92.4368 68.6082ZM91.8381 66.3006C91.8381 65.3941 92.0458 64.6378 92.4331 63.9992L90.7231 62.962C90.1238 63.9501 89.8381 65.0738 89.8381 66.3006H91.8381ZM92.4368 63.9931C92.8354 63.3252 93.3809 62.8041 94.0922 62.4211L93.144 60.6602C92.122 61.2105 91.3075 61.9827 90.7194 62.9682L92.4368 63.9931ZM94.0866 62.4241C94.8052 62.043 95.6409 61.8406 96.6181 61.8406V59.8406C95.3554 59.8406 94.1911 60.1049 93.1496 60.6572L94.0866 62.4241ZM96.6181 61.8406C97.5188 61.8406 98.2632 62.0244 98.8814 62.3597L99.8349 60.6016C98.8797 60.0835 97.7975 59.8406 96.6181 59.8406V61.8406ZM98.8991 62.3691C99.5103 62.6848 99.9669 63.1446 100.287 63.7737L102.07 62.8676C101.563 61.87 100.806 61.1031 99.8171 60.5922L98.8991 62.3691ZM100.674 62.4568L98.7543 63.5768L99.762 65.3044L101.682 64.1844L100.674 62.4568ZM100.104 63.9066C99.7021 63.2708 99.1824 62.764 98.5355 62.4313L97.6208 64.2099C97.9072 64.3572 98.1742 64.5971 98.4126 64.9746L100.104 63.9066ZM98.546 62.4368C97.9427 62.1174 97.2879 61.9606 96.5981 61.9606V63.9606C96.9751 63.9606 97.3069 64.0438 97.6102 64.2044L98.546 62.4368ZM96.5981 61.9606C95.8347 61.9606 95.1154 62.1281 94.4626 62.4809L95.4136 64.2403C95.7475 64.0599 96.1349 63.9606 96.5981 63.9606V61.9606ZM94.4626 62.4809C93.7952 62.8417 93.2723 63.3684 92.9029 64.0369L94.6534 65.0043C94.8439 64.6595 95.0944 64.4129 95.4136 64.2403L94.4626 62.4809ZM92.9084 64.027C92.526 64.7009 92.3581 65.4725 92.3581 66.3006H94.3581C94.3581 65.7421 94.4703 65.327 94.6478 65.0142L92.9084 64.027ZM92.3581 66.3006C92.3581 67.1298 92.5263 67.9029 92.9029 68.5843L94.6534 67.6169C94.47 67.2851 94.3581 66.8581 94.3581 66.3006H92.3581ZM92.9084 68.5942C93.2799 69.2487 93.8023 69.7634 94.4626 70.1203L95.4136 68.3609C95.0873 68.1845 94.8364 67.9392 94.6478 67.607L92.9084 68.5942ZM94.4626 70.1203C95.1154 70.4732 95.8347 70.6406 96.5981 70.6406V68.6406C96.1349 68.6406 95.7475 68.5414 95.4136 68.3609L94.4626 70.1203ZM96.5981 70.6406C97.2879 70.6406 97.9427 70.4838 98.546 70.1644L97.6102 68.3968C97.3069 68.5574 96.9751 68.6406 96.5981 68.6406V70.6406ZM98.5355 70.1699C99.1824 69.8372 99.7021 69.3304 100.104 68.6946L98.4126 67.6266C98.1742 68.0042 97.9072 68.244 97.6208 68.3913L98.5355 70.1699ZM98.7543 69.0244L100.674 70.1444L101.682 68.4168L99.762 67.2968L98.7543 69.0244ZM100.29 68.8216C99.9688 69.4427 99.5049 69.9186 98.8762 70.2644L99.84 72.0168C100.811 71.4826 101.561 70.7186 102.067 69.7396L100.29 68.8216ZM98.8814 70.2616C98.2632 70.5969 97.5188 70.7806 96.6181 70.7806V72.7806C97.7975 72.7806 98.8797 72.5377 99.8349 72.0197L98.8814 70.2616ZM105.083 71.0806L104.604 71.9585L104.612 71.9628L104.62 71.967L105.083 71.0806ZM103.023 69.1206L102.158 69.6228L102.164 69.6331L103.023 69.1206ZM103.003 63.4806L102.138 62.9785L102.136 62.983L103.003 63.4806ZM104.963 61.5406L104.477 60.6664L104.471 60.6698L104.963 61.5406ZM110.603 61.5206L111.09 60.6471L111.09 60.6471L110.603 61.5206ZM113.203 66.7206L112.208 66.6211L112.203 66.6707V66.7206H113.203ZM113.183 67.1006V68.1006H114.078L114.177 67.2111L113.183 67.1006ZM104.283 67.1006H103.283V68.1006H104.283V67.1006ZM104.283 65.4406V64.4406H103.283V65.4406H104.283ZM111.863 65.4406L112.332 66.324L111.863 64.4406V65.4406ZM110.883 65.9606L109.883 65.9389L109.846 67.6428L111.352 66.844L110.883 65.9606ZM110.503 64.3406L109.635 64.8368L109.635 64.8368L110.503 64.3406ZM109.403 63.2406L108.896 64.1026L108.907 64.1089L109.403 63.2406ZM106.203 63.2406L105.707 62.3723L105.696 62.3787L106.203 63.2406ZM105.123 64.3606L104.249 63.875L104.244 63.8835L105.123 64.3606ZM106.423 69.2606L105.976 70.1551L105.976 70.1551L106.423 69.2606ZM109.883 69.3806L110.245 70.3126L110.245 70.3126L109.883 69.3806ZM111.163 68.5006L111.917 67.8442L111.189 67.0071L110.432 67.8183L111.163 68.5006ZM112.503 70.0406L113.262 70.6914L113.824 70.0357L113.257 69.3842L112.503 70.0406ZM110.683 71.3406L111.06 72.2668L111.069 72.2632L110.683 71.3406ZM108.203 70.7806C107.149 70.7806 106.273 70.5741 105.546 70.1943L104.62 71.967C105.68 72.5205 106.884 72.7806 108.203 72.7806V70.7806ZM105.562 70.2027C104.832 69.8047 104.279 69.2748 103.882 68.6082L102.164 69.6331C102.753 70.6198 103.574 71.3966 104.604 71.9585L105.562 70.2027ZM103.888 68.6185C103.505 67.9596 103.303 67.196 103.303 66.3006H101.303C101.303 67.5119 101.581 68.6284 102.158 69.6228L103.888 68.6185ZM103.303 66.3006C103.303 65.3842 103.502 64.6203 103.87 63.9783L102.136 62.983C101.571 63.9676 101.303 65.0838 101.303 66.3006H103.303ZM103.868 63.9828C104.259 63.3089 104.784 62.79 105.455 62.4114L104.471 60.6698C103.489 61.2246 102.707 61.999 102.138 62.9785L103.868 63.9828ZM105.449 62.4148C106.124 62.0395 106.907 61.8406 107.823 61.8406V59.8406C106.605 59.8406 105.482 60.1085 104.477 60.6665L105.449 62.4148ZM107.823 61.8406C108.713 61.8406 109.468 62.0331 110.116 62.3941L111.09 60.6471C110.111 60.1015 109.013 59.8406 107.823 59.8406V61.8406ZM110.116 62.3941C110.765 62.7561 111.274 63.2624 111.652 63.9322L113.394 62.949C112.839 61.9655 112.067 61.1919 111.09 60.6471L110.116 62.3941ZM111.652 63.9322C112.02 64.5839 112.223 65.3818 112.223 66.3606H114.223C114.223 65.0995 113.959 63.9506 113.394 62.949L111.652 63.9322ZM112.223 66.3606C112.223 66.4269 112.219 66.5129 112.208 66.6211L114.198 66.8201C114.214 66.6617 114.223 66.5077 114.223 66.3606H112.223ZM112.203 66.7206C112.203 66.8208 112.198 66.9104 112.189 66.9902L114.177 67.2111C114.195 67.0508 114.203 66.8871 114.203 66.7206H112.203ZM113.183 66.1006H104.283V68.1006H113.183V66.1006ZM105.283 67.1006V65.4406H103.283V67.1006H105.283ZM104.283 66.4406H111.863V64.4406H104.283V66.4406ZM111.394 64.5573L110.414 65.0773L111.352 66.844L112.332 66.324L111.394 64.5573ZM111.883 65.9824C111.899 65.2138 111.74 64.4899 111.371 63.8445L109.635 64.8368C109.799 65.1247 109.893 65.4808 109.883 65.9389L111.883 65.9824ZM111.371 63.8445C111.016 63.2228 110.521 62.7276 109.899 62.3724L108.907 64.1089C109.218 64.2869 109.457 64.5251 109.635 64.8368L111.371 63.8445ZM109.91 62.3787C109.282 62.0095 108.576 61.8406 107.823 61.8406V63.8406C108.27 63.8406 108.617 63.9384 108.896 64.1026L109.91 62.3787ZM107.823 61.8406C107.061 61.8406 106.345 62.0078 105.707 62.3724L106.699 64.1089C106.994 63.9401 107.359 63.8406 107.823 63.8406V61.8406ZM105.696 62.3787C105.082 62.7399 104.598 63.2462 104.249 63.875L105.997 64.8463C106.181 64.515 106.417 64.2747 106.71 64.1026L105.696 62.3787ZM104.244 63.8835C103.896 64.5239 103.743 65.248 103.743 66.0206H105.743C105.743 65.5132 105.843 65.1307 106.002 64.8377L104.244 63.8835ZM103.743 66.0206V66.4206H105.743V66.0206H103.743ZM103.743 66.4206C103.743 67.2193 103.928 67.9665 104.323 68.6317L106.043 67.6095C105.851 67.2881 105.743 66.902 105.743 66.4206H103.743ZM104.323 68.6317C104.719 69.2963 105.278 69.8062 105.976 70.1551L106.87 68.3662C106.501 68.1817 106.234 67.9316 106.043 67.6095L104.323 68.6317ZM105.976 70.1551C106.669 70.5016 107.44 70.6606 108.263 70.6606V68.6606C107.7 68.6606 107.244 68.553 106.87 68.3662L105.976 70.1551ZM108.263 70.6606C108.967 70.6606 109.632 70.551 110.245 70.3126L109.521 68.4486C109.173 68.5836 108.759 68.6606 108.263 68.6606V70.6606ZM110.245 70.3126C110.874 70.0681 111.425 69.6858 111.894 69.1829L110.432 67.8183C110.155 68.1154 109.852 68.3198 109.521 68.4486L110.245 70.3126ZM110.409 69.157L111.749 70.697L113.257 69.3842L111.917 67.8442L110.409 69.157ZM111.744 69.3898C111.373 69.8223 110.898 70.1668 110.297 70.418L111.069 72.2632C111.935 71.9011 112.673 71.379 113.262 70.6914L111.744 69.3898ZM110.306 70.4145C109.727 70.6503 109.032 70.7806 108.203 70.7806V72.7806C109.24 72.7806 110.199 72.6176 111.06 72.2667L110.306 70.4145ZM116.344 71.4406L116.061 72.3997L116.071 72.4025L116.08 72.405L116.344 71.4406ZM114.404 70.5806L113.512 70.1297L113.12 70.9059L113.834 71.402L114.404 70.5806ZM115.364 68.6806L115.903 67.8379L114.971 67.2424L114.472 68.2297L115.364 68.6806ZM117.084 69.4406L117.372 68.4828L117.372 68.4828L117.084 69.4406ZM120.784 69.4206L120.275 68.5603L120.267 68.5646L120.26 68.569L120.784 69.4206ZM120.964 67.9006L120.41 68.7327L120.426 68.7436L120.443 68.7539L120.964 67.9006ZM118.724 67.3206L118.583 68.3106L118.587 68.3111L118.724 67.3206ZM117.304 67.0606L117.055 68.0291L117.071 68.0332L117.087 68.0368L117.304 67.0606ZM116.024 66.5606L115.519 67.4233L115.53 67.4299L115.541 67.4362L116.024 66.5606ZM115.304 62.4206L116.091 63.0376L116.099 63.0273L115.304 62.4206ZM116.924 61.2606L117.283 62.194L117.293 62.1903L116.924 61.2606ZM121.604 61.0806L121.391 62.0576L121.391 62.0576L121.604 61.0806ZM123.424 61.7606L124.317 62.2116L124.733 61.3883L123.946 60.9073L123.424 61.7606ZM122.464 63.6606L121.947 64.5161L122.87 65.0751L123.357 64.1116L122.464 63.6606ZM120.924 63.0406L120.694 64.0137L120.709 64.0172L120.723 64.0202L120.924 63.0406ZM117.704 63.2006L117.185 62.3458L117.178 62.3501L117.172 62.3544L117.704 63.2006ZM117.524 64.7806L116.97 65.6127L116.97 65.6127L117.524 64.7806ZM118.464 65.1606L118.23 66.1327L118.23 66.1327L118.464 65.1606ZM119.744 65.4006L119.603 66.3906L119.618 66.3928L119.634 66.3945L119.744 65.4006ZM121.164 65.6606L121.413 64.6921L121.413 64.6921L121.164 65.6606ZM122.444 66.1606L121.961 67.0362L121.979 67.046L121.997 67.0551L122.444 66.1606ZM123.164 70.2206L122.388 69.5908L122.382 69.5972L122.377 69.6037L123.164 70.2206ZM121.504 71.3806L121.852 72.3184L121.859 72.3156L121.867 72.3126L121.504 71.3806ZM118.924 70.7806C118.117 70.7806 117.346 70.6783 116.609 70.4762L116.08 72.405C116.996 72.6563 117.945 72.7806 118.924 72.7806V70.7806ZM116.627 70.4815C115.875 70.2594 115.337 70.0108 114.975 69.7593L113.834 71.402C114.432 71.8171 115.187 72.1419 116.061 72.3997L116.627 70.4815ZM115.297 71.0316L116.257 69.1316L114.472 68.2297L113.512 70.1297L115.297 71.0316ZM114.826 69.5233C115.399 69.8894 116.061 70.1775 116.797 70.3985L117.372 68.4828C116.775 68.3037 116.29 68.0852 115.903 67.8379L114.826 69.5233ZM116.797 70.3985C117.553 70.6252 118.316 70.7406 119.084 70.7406V68.7406C118.519 68.7406 117.949 68.6561 117.372 68.4828L116.797 70.3985ZM119.084 70.7406C119.912 70.7406 120.715 70.6374 121.308 70.2723L120.26 68.569C120.16 68.6305 119.83 68.7406 119.084 68.7406V70.7406ZM121.294 70.2809C121.899 69.9222 122.324 69.337 122.324 68.5606H120.324C120.324 68.5665 120.324 68.5613 120.327 68.5487C120.331 68.5357 120.337 68.5233 120.342 68.5139C120.355 68.4943 120.349 68.516 120.275 68.5603L121.294 70.2809ZM122.324 68.5606C122.324 67.9371 122.038 67.385 121.486 67.0473L120.443 68.7539C120.432 68.7473 120.39 68.7165 120.356 68.6545C120.324 68.5943 120.324 68.5526 120.324 68.5606H122.324ZM121.519 67.0686C121.141 66.8163 120.696 66.6584 120.227 66.5614L119.822 68.5199C120.126 68.5828 120.308 68.6649 120.41 68.7327L121.519 67.0686ZM120.227 66.5614C119.815 66.476 119.359 66.3992 118.862 66.3301L118.587 68.3111C119.05 68.3754 119.461 68.4452 119.822 68.5199L120.227 66.5614ZM118.866 66.3307C118.426 66.2678 117.977 66.1858 117.521 66.0844L117.087 68.0368C117.591 68.1488 118.09 68.2401 118.583 68.3106L118.866 66.3307ZM117.553 66.0921C117.161 65.9912 116.814 65.8542 116.507 65.685L115.541 67.4362C116.008 67.6938 116.514 67.89 117.055 68.0291L117.553 66.0921ZM116.53 65.6979C116.278 65.5499 116.08 65.3597 115.926 65.1199L114.243 66.2014C114.569 66.7082 114.998 67.118 115.519 67.4233L116.53 65.6979ZM115.926 65.1199C115.822 64.9584 115.724 64.6728 115.724 64.1806H113.724C113.724 64.9151 113.867 65.6162 114.243 66.2014L115.926 65.1199ZM115.724 64.1806C115.724 63.7041 115.855 63.3395 116.091 63.0375L114.517 61.8037C113.981 62.4884 113.724 63.2972 113.724 64.1806H115.724ZM116.099 63.0273C116.356 62.6907 116.734 62.4054 117.283 62.194L116.565 60.3273C115.728 60.6492 115.026 61.1372 114.509 61.814L116.099 63.0273ZM117.293 62.1903C117.856 61.9672 118.559 61.8406 119.424 61.8406V59.8406C118.37 59.8406 117.406 59.994 116.556 60.3309L117.293 62.1903ZM119.424 61.8406C120.07 61.8406 120.725 61.9123 121.391 62.0576L121.818 60.1036C121.017 59.929 120.219 59.8406 119.424 59.8406V61.8406ZM121.391 62.0576C122.05 62.2013 122.544 62.3945 122.903 62.6139L123.946 60.9073C123.345 60.5401 122.626 60.2799 121.818 60.1036L121.391 62.0576ZM122.532 61.3097L121.572 63.2097L123.357 64.1116L124.317 62.2116L122.532 61.3097ZM122.982 62.8051C122.389 62.4461 121.769 62.1931 121.125 62.061L120.723 64.0202C121.119 64.1014 121.526 64.2618 121.947 64.5161L122.982 62.8051ZM121.155 62.0675C120.575 61.9302 119.991 61.8606 119.404 61.8606V63.8606C119.831 63.8606 120.261 63.9111 120.694 64.0137L121.155 62.0675ZM119.404 61.8606C118.58 61.8606 117.792 61.9773 117.185 62.3458L118.223 64.0554C118.363 63.9706 118.709 63.8606 119.404 63.8606V61.8606ZM117.172 62.3544C116.597 62.7162 116.164 63.2891 116.164 64.0606H118.164C118.164 64.0606 118.164 64.0613 118.164 64.0625C118.164 64.0638 118.164 64.0656 118.164 64.0679C118.163 64.0726 118.162 64.0785 118.16 64.0853C118.156 64.0998 118.15 64.1111 118.146 64.1174C118.139 64.1294 118.152 64.1002 118.237 64.0469L117.172 62.3544ZM116.164 64.0606C116.164 64.6719 116.417 65.2445 116.97 65.6127L118.079 63.9486C118.084 63.9515 118.095 63.9604 118.11 63.9767C118.125 63.9933 118.139 64.0128 118.149 64.0334C118.17 64.0766 118.164 64.095 118.164 64.0606H116.164ZM116.97 65.6127C117.337 65.8573 117.769 66.0215 118.23 66.1327L118.699 64.1885C118.386 64.1131 118.192 64.0239 118.079 63.9486L116.97 65.6127ZM118.23 66.1327C118.652 66.2347 119.11 66.3202 119.603 66.3906L119.886 64.4107C119.445 64.3477 119.05 64.2732 118.699 64.1885L118.23 66.1327ZM119.634 66.3945C120.067 66.4427 120.494 66.5209 120.915 66.6291L121.413 64.6921C120.901 64.5604 120.381 64.4653 119.855 64.4067L119.634 66.3945ZM120.915 66.6291C121.308 66.73 121.655 66.8671 121.961 67.0362L122.927 65.285C122.461 65.0275 121.954 64.8312 121.413 64.6921L120.915 66.6291ZM121.997 67.0551C122.238 67.1753 122.421 67.3404 122.563 67.5614L124.246 66.4799C123.908 65.9542 123.451 65.5459 122.892 65.2662L121.997 67.0551ZM122.563 67.5614C122.669 67.7259 122.764 68.0068 122.764 68.4806H124.764C124.764 67.7544 124.62 67.062 124.246 66.4799L122.563 67.5614ZM122.764 68.4806C122.764 68.9303 122.636 69.2849 122.388 69.5908L123.941 70.8504C124.493 70.1696 124.764 69.3643 124.764 68.4806H122.764ZM122.377 69.6037C122.124 69.9264 121.733 70.2186 121.142 70.4486L121.867 72.3126C122.715 71.9826 123.431 71.5015 123.951 70.8375L122.377 69.6037ZM121.157 70.4429C120.576 70.658 119.84 70.7806 118.924 70.7806V72.7806C120.009 72.7806 120.993 72.6366 121.852 72.3184L121.157 70.4429Z" fill="black" mask="url(#path-3-outside-1_2096_1368)"/>
<defs>
<filter id="filter0_d_2096_1368" x="-3.99951" y="0" width="142.23" height="137" filterUnits="userSpaceOnUse" color-interpolation-filters="sRGB">
<feFlood flood-opacity="0" result="BackgroundImageFix"/>
<feColorMatrix in="SourceAlpha" type="matrix" values="0 0 0 0 0 0 0 0 0 0 0 0 0 0 0 0 0 0 127 0" result="hardAlpha"/>
<feOffset dy="4"/>
<feGaussianBlur stdDeviation="2"/>
<feComposite in2="hardAlpha" operator="out"/>
<feColorMatrix type="matrix" values="0 0 0 0 0 0 0 0 0 0 0 0 0 0 0 0 0 0 0.25 0"/>
<feBlend mode="normal" in2="BackgroundImageFix" result="effect1_dropShadow_2096_1368"/>
<feBlend mode="normal" in="SourceGraphic" in2="effect1_dropShadow_2096_1368" result="shape"/>
</filter>
</defs>
</svg>
