<svg width="91" height="91" viewBox="0 0 91 91" fill="none" xmlns="http://www.w3.org/2000/svg">
<g clip-path="url(#clip0_18_10903)">
<path d="M45.1013 10.867C25.8002 10.8816 10.1133 26.5925 10.1279 45.8935C10.1426 65.1946 25.8534 80.8816 45.1545 80.8669C64.4556 80.8523 80.1426 65.1414 80.1279 45.8403C80.1133 26.5393 64.4024 10.8523 45.1013 10.867ZM46.8593 15.8202C55.8323 16.3265 63.7365 20.7445 68.9083 27.4011C67.5447 27.3671 66.1874 27.3597 64.8357 27.3811C62.4893 27.4217 60.1452 27.5477 57.808 27.7588C57.3775 26.8719 56.706 26.1242 55.8703 25.6012C55.0347 25.0782 54.0687 24.801 53.0828 24.8014C52.8386 24.8016 52.5946 24.8189 52.3528 24.8531C50.7064 21.7335 48.8719 18.717 46.8593 15.8202ZM42.6047 15.8795C45.1533 19.3558 47.3631 22.8849 49.2544 26.4633C48.5524 27.2132 48.0858 28.1525 47.9124 29.1649C44.6474 29.8037 41.4169 30.6075 38.2333 31.5733C37.8366 31.0378 37.3417 30.5828 36.7749 30.2325C38.0922 25.517 39.9365 20.7388 42.2954 15.9028C42.3983 15.8936 42.5019 15.8886 42.6047 15.8795ZM38.0973 16.5983C36.1266 20.9153 34.5548 25.2159 33.3863 29.4889C32.6775 29.5744 31.9936 29.8037 31.3765 30.1626C30.7593 30.5215 30.2218 31.0025 29.7969 31.5762C26.6377 30.5713 23.4381 29.6984 20.2063 28.9599C24.4188 22.7516 30.8002 18.3424 38.0973 16.5983ZM66.8942 30.869C68.3587 30.877 69.8301 30.9228 71.3092 30.9986C73.0795 34.1112 74.2764 37.5165 74.8428 41.0522C70.6083 41.7442 66.486 42.7014 62.4732 43.9071C62.0394 43.3708 61.5043 42.9253 60.8984 42.5959C60.2924 42.2666 59.6275 42.0598 58.9416 41.9875C58.265 39.3019 57.4411 36.6556 56.4737 34.0605C57.3413 33.3274 57.9477 32.3327 58.2019 31.2256C61.071 30.9742 63.9668 30.8523 66.8942 30.869ZM18.3299 32.1393C21.9019 32.9227 25.3872 33.8391 28.7711 34.9167C28.7713 34.9237 28.7716 34.9307 28.7718 34.9377C24.2176 36.8122 19.74 39.022 15.3376 41.5538C15.8062 38.2714 16.8174 35.0899 18.3299 32.1393ZM48.4961 32.5952C48.9505 33.4153 49.6162 34.0987 50.4241 34.5745C51.232 35.0503 52.1525 35.301 53.0901 35.3007C53.1373 35.3001 53.1844 35.2989 53.2315 35.2971C54.1485 37.7469 54.93 40.2454 55.5724 42.7811C55.3096 42.948 55.0621 43.1379 54.8329 43.3487C49.8942 40.1352 44.6808 37.3649 39.2537 35.0704C39.258 35.0107 39.2612 34.951 39.2634 34.8912C42.3007 33.9714 45.3817 33.2051 48.4961 32.5952ZM30.0763 38.1679C30.4626 38.6066 30.9195 38.9777 31.4281 39.2659C30.5708 46.0152 30.767 52.6693 32.0879 59.1776C28.9883 61.4478 26.0022 63.8692 23.1405 66.4329C18.1139 61.0614 15.034 53.846 15.0279 45.8898C15.0279 45.8569 15.0307 45.8254 15.0307 45.7925C19.9613 42.825 24.9735 40.2753 30.0763 38.1679ZM37.8611 38.2733C43.2104 40.5291 48.344 43.2657 53.1987 46.4495C53.1612 46.7021 53.1422 46.9572 53.1419 47.2126C53.1418 47.2235 53.1418 47.2345 53.1419 47.2455C46.8719 49.8577 40.8865 53.1208 35.1789 56.9989C34.1876 51.4011 34.0783 45.6947 34.811 39.8884C35.9806 39.7091 37.0554 39.14 37.8611 38.2733ZM75.194 44.5407C75.2126 44.9726 75.2276 45.4066 75.2279 45.8434C75.2357 50.1066 74.3362 54.3227 72.5892 58.2116C69.6407 55.0766 66.4889 52.1391 63.1542 49.4183C63.4748 48.728 63.6414 47.9762 63.6426 47.2151C67.4332 46.0823 71.2913 45.1891 75.194 44.5407ZM54.326 50.5269C55.0822 51.4537 56.1323 52.0945 57.3024 52.3432C58.0734 59.2789 57.845 66.389 56.6662 73.6797C53.0152 75.191 49.1022 75.9682 45.1508 75.9669C44.1169 75.9677 43.0949 75.9167 42.0882 75.816C39.276 70.8733 37.2443 65.8306 35.9664 60.6957C41.7929 56.6152 47.9048 53.2134 54.326 50.5269ZM60.7538 51.964C64.3532 54.8924 67.7335 58.0803 70.8676 61.5022C68.2991 65.7237 64.7326 69.2495 60.4818 71.7693C61.3762 65.0472 61.4797 58.4384 60.7538 51.9654L60.7538 51.964ZM32.9651 62.8736C34.0812 66.9978 35.6551 71.0595 37.7014 75.0451C33.2761 73.9235 29.1655 71.8058 25.6833 68.8536C28.0596 66.7378 30.4864 64.741 32.9651 62.8736Z" fill="white"/>
</g>
<defs>
<clipPath id="clip0_18_10903">
<rect width="70" height="70" fill="white" transform="translate(10.1013 10.8936) rotate(-0.0435407)"/>
</clipPath>
</defs>
</svg>
