<svg width="91" height="90" viewBox="0 0 91 90" fill="none" xmlns="http://www.w3.org/2000/svg">
<g id="Frame">
<g id="Layer 2">
<path id="Vector" d="M75.168 82.5V7.5H26.418C23.4343 7.5 20.5728 8.68526 18.463 10.795C16.3532 12.9048 15.168 15.7663 15.168 18.75V71.25C15.168 74.2337 16.3532 77.0952 18.463 79.205C20.5728 81.3147 23.4343 82.5 26.418 82.5H75.168ZM30.168 22.5H60.168V30H30.168V22.5ZM22.668 71.25C22.6749 70.7512 22.7813 70.2588 22.9809 69.8016C23.1805 69.3444 23.4693 68.9317 23.8305 68.5875C24.1629 68.2369 24.5646 67.9592 25.01 67.772C25.4554 67.5848 25.9349 67.4921 26.418 67.5H67.668V75H26.418C25.4234 75 24.4696 74.6049 23.7663 73.9017C23.0631 73.1984 22.668 72.2446 22.668 71.25Z" fill="white"/>
</g>
</g>
</svg>
