<svg width="90" height="90" viewBox="0 0 90 90" fill="none" xmlns="http://www.w3.org/2000/svg">
<g id="Frame">
<path id="Vector" d="M75 63.75V26.25C75 18.12 61.2637 11.25 45 11.25C28.7362 11.25 15 18.12 15 26.25V63.75C15 71.88 28.7362 78.75 45 78.75C61.2637 78.75 75 71.88 75 63.75ZM45 18.75C58.8413 18.75 67.2412 24.4012 67.5 26.2275C67.2412 28.0987 58.8413 33.75 45 33.75C31.1588 33.75 22.7587 28.0988 22.5 26.2725C22.7587 24.4012 31.1588 18.75 45 18.75ZM22.5 36.0263C28.0463 39.2025 36.1388 41.25 45 41.25C53.8612 41.25 61.9538 39.2025 67.5 36.0263V44.9775C67.2412 46.8488 58.8413 52.5 45 52.5C31.1588 52.5 22.7587 46.8488 22.5 45V36.0263ZM22.5 63.75V54.7763C28.0463 57.9525 36.1388 60 45 60C53.8612 60 61.9538 57.9525 67.5 54.7763V63.7275C67.2412 65.5987 58.8413 71.25 45 71.25C31.1588 71.25 22.7587 65.5988 22.5 63.75Z" fill="white"/>
</g>
</svg>
