<svg width="89" height="89" viewBox="0 0 89 89" fill="none" xmlns="http://www.w3.org/2000/svg">
<g filter="url(#filter0_ddd_18_10885)">
<mask id="path-1-inside-1_18_10885" fill="white">
<path d="M84.457 54.2497L73.248 40.8361L84.0034 27.9094L68.6546 24.435L69.7062 8.72346L54.0023 14.2306L45.5648 0.496582L36.6626 13.8981L20.5149 7.47471L22.0443 24.7716L6.00433 27.6317L17.8296 39.4302L4.45703 52.6203L22.2101 55.6783L20.1074 73.6796L36.2122 65.3956L43.0887 77.4805V77.6458H43.1828L44.8049 80.4966L46.4767 77.6458H46.5371V77.5428L53.4744 65.7136L68.6866 73.556L68.498 56.4338L84.457 54.2497ZM59.5588 51.3383L66.6782 49.0581L73.0838 51.6011L65.2701 52.6699L59.5588 51.3383ZM50.9108 51.5889L44.8592 59.5983L38.5875 51.0414L45.0886 43.8438L50.9108 51.5889ZM57.0314 24.2305V34.9966L46.3552 38.7583V28.2933L57.0314 24.2305ZM42.9068 27.9477V38.0575L33.7974 34.583L33.1198 24.1424L42.9068 27.9477ZM32.6599 37.7299L42.6074 41.5244L35.8412 49.0149L25.5275 45.8367L32.6599 37.7299ZM47.8058 41.7924L58.1432 38.1502L64.02 46.4002L53.9258 49.6342L47.8058 41.7924ZM73.9991 48.3638L67.8717 45.9313L63.5136 39.813L68.5736 41.8703L73.9991 48.3638ZM76.3555 30.4544L69.5378 38.6483L61.6097 35.4252L66.8806 28.3097L76.3555 30.4544ZM64.2177 26.1802L60.4798 31.2263V21.8919L64.8274 17.0822L64.2177 26.1802ZM61.0608 16.1844L57.0192 20.6556L48.9373 23.7308L52.8417 19.0663L61.0608 16.1844ZM45.4216 8.42189L50.4563 16.6183L44.8866 23.273L40.0144 16.5621L45.4216 8.42189ZM37.3303 18.6663L40.8937 23.5749L32.6282 20.3608L28.3441 15.0914L37.3303 18.6663ZM29.5214 21.9335L30.0874 30.6514L26.5147 26.3999L25.7045 17.2385L29.5214 21.9335ZM14.6936 30.3156L23.974 28.661L29.2441 34.9331L21.7702 37.3753L14.6936 30.3156ZM22.6831 40.5931L26.7994 39.248L21.5285 45.2397L16.1353 47.0517L22.6831 40.5931ZM16.4794 50.4619L22.5608 48.4186L30.1344 50.7524L25.1995 51.9639L16.4794 50.4619ZM26.6211 55.0516L35.3521 52.9085V61.1216L25.3086 66.287L26.6211 55.0516ZM38.8006 61.3013V57.0966L43.0887 62.9471V68.8372L38.8006 61.3013ZM46.5371 62.9758L50.9108 57.3922V61.6378L46.5371 69.095V62.9758ZM54.3594 61.4506V53.5528L64.1805 55.8425L64.2986 66.5747L54.3594 61.4506Z"/>
</mask>
<path d="M84.457 54.2497L73.248 40.8361L84.0034 27.9094L68.6546 24.435L69.7062 8.72346L54.0023 14.2306L45.5648 0.496582L36.6626 13.8981L20.5149 7.47471L22.0443 24.7716L6.00433 27.6317L17.8296 39.4302L4.45703 52.6203L22.2101 55.6783L20.1074 73.6796L36.2122 65.3956L43.0887 77.4805V77.6458H43.1828L44.8049 80.4966L46.4767 77.6458H46.5371V77.5428L53.4744 65.7136L68.6866 73.556L68.498 56.4338L84.457 54.2497ZM59.5588 51.3383L66.6782 49.0581L73.0838 51.6011L65.2701 52.6699L59.5588 51.3383ZM50.9108 51.5889L44.8592 59.5983L38.5875 51.0414L45.0886 43.8438L50.9108 51.5889ZM57.0314 24.2305V34.9966L46.3552 38.7583V28.2933L57.0314 24.2305ZM42.9068 27.9477V38.0575L33.7974 34.583L33.1198 24.1424L42.9068 27.9477ZM32.6599 37.7299L42.6074 41.5244L35.8412 49.0149L25.5275 45.8367L32.6599 37.7299ZM47.8058 41.7924L58.1432 38.1502L64.02 46.4002L53.9258 49.6342L47.8058 41.7924ZM73.9991 48.3638L67.8717 45.9313L63.5136 39.813L68.5736 41.8703L73.9991 48.3638ZM76.3555 30.4544L69.5378 38.6483L61.6097 35.4252L66.8806 28.3097L76.3555 30.4544ZM64.2177 26.1802L60.4798 31.2263V21.8919L64.8274 17.0822L64.2177 26.1802ZM61.0608 16.1844L57.0192 20.6556L48.9373 23.7308L52.8417 19.0663L61.0608 16.1844ZM45.4216 8.42189L50.4563 16.6183L44.8866 23.273L40.0144 16.5621L45.4216 8.42189ZM37.3303 18.6663L40.8937 23.5749L32.6282 20.3608L28.3441 15.0914L37.3303 18.6663ZM29.5214 21.9335L30.0874 30.6514L26.5147 26.3999L25.7045 17.2385L29.5214 21.9335ZM14.6936 30.3156L23.974 28.661L29.2441 34.9331L21.7702 37.3753L14.6936 30.3156ZM22.6831 40.5931L26.7994 39.248L21.5285 45.2397L16.1353 47.0517L22.6831 40.5931ZM16.4794 50.4619L22.5608 48.4186L30.1344 50.7524L25.1995 51.9639L16.4794 50.4619ZM26.6211 55.0516L35.3521 52.9085V61.1216L25.3086 66.287L26.6211 55.0516ZM38.8006 61.3013V57.0966L43.0887 62.9471V68.8372L38.8006 61.3013ZM46.5371 62.9758L50.9108 57.3922V61.6378L46.5371 69.095V62.9758ZM54.3594 61.4506V53.5528L64.1805 55.8425L64.2986 66.5747L54.3594 61.4506Z" fill="white" stroke="black" stroke-width="0.2" mask="url(#path-1-inside-1_18_10885)"/>
</g>
<defs>
<filter id="filter0_ddd_18_10885" x="0.457031" y="0.496582" width="88" height="88" filterUnits="userSpaceOnUse" color-interpolation-filters="sRGB">
<feFlood flood-opacity="0" result="BackgroundImageFix"/>
<feColorMatrix in="SourceAlpha" type="matrix" values="0 0 0 0 0 0 0 0 0 0 0 0 0 0 0 0 0 0 127 0" result="hardAlpha"/>
<feOffset dy="4"/>
<feGaussianBlur stdDeviation="2"/>
<feComposite in2="hardAlpha" operator="out"/>
<feColorMatrix type="matrix" values="0 0 0 0 0 0 0 0 0 0 0 0 0 0 0 0 0 0 0.25 0"/>
<feBlend mode="normal" in2="BackgroundImageFix" result="effect1_dropShadow_18_10885"/>
<feColorMatrix in="SourceAlpha" type="matrix" values="0 0 0 0 0 0 0 0 0 0 0 0 0 0 0 0 0 0 127 0" result="hardAlpha"/>
<feOffset dy="4"/>
<feGaussianBlur stdDeviation="2"/>
<feComposite in2="hardAlpha" operator="out"/>
<feColorMatrix type="matrix" values="0 0 0 0 0 0 0 0 0 0 0 0 0 0 0 0 0 0 0.25 0"/>
<feBlend mode="normal" in2="effect1_dropShadow_18_10885" result="effect2_dropShadow_18_10885"/>
<feColorMatrix in="SourceAlpha" type="matrix" values="0 0 0 0 0 0 0 0 0 0 0 0 0 0 0 0 0 0 127 0" result="hardAlpha"/>
<feOffset dy="4"/>
<feGaussianBlur stdDeviation="2"/>
<feComposite in2="hardAlpha" operator="out"/>
<feColorMatrix type="matrix" values="0 0 0 0 0 0 0 0 0 0 0 0 0 0 0 0 0 0 0.25 0"/>
<feBlend mode="normal" in2="effect2_dropShadow_18_10885" result="effect3_dropShadow_18_10885"/>
<feBlend mode="normal" in="SourceGraphic" in2="effect3_dropShadow_18_10885" result="shape"/>
</filter>
</defs>
</svg>
